{"title":"Red Rose of Normandy 2011 DVDRiP HS","uid":7360366,"size":738540512,"categoryP":"video","categoryS":"movies","magnet":"?xt=urn:btih:e220df8b33ef9cd5805e541bdde5093f53560098&amp;dn=Red+Rose+of+Normandy+2011+DVDRiP+HS&amp;tr=udp%3A%2F%2Ftracker.openbittorrent.com%3A80&amp;tr=udp%3A%2F%2Fopen.demonii.com%3A1337&amp;tr=udp%3A%2F%2Ftracker.coppersurfer.tk%3A6969&amp;tr=udp%3A%2F%2Fexodus.desync.com%3A6969","seeders":1,"leechers":0,"uploader":"HeroMaster","files":-1,"time":1339942283,"description":"Red Rose of Normandy 2011 DVDRiP HS\n\n &lt;a href=&quot;\nhttp://www.imdb.com/title/tt1702587/&quot; rel=&quot;nofollow&quot; target=&quot;_NEW&quot;&gt;\nhttp://www.imdb.com/title/tt1702587/&lt;/a&gt;\n\n\nCaught in the middle of the advancing Allies and the fanatical Gestapo during \nWorld War II, Klaus and Klaudia must fight their way out, only to make one last stand together surrounded in the middle of the biggest invasion in world history. \n\n\nSource- DVDR OWN\n\nFormat/Info                              : Audio Video Interleave\nFile size                                : 704 MiB\nDuration                                 : 1h 42mn\nOverall bit rate                         : 965 Kbps\nWriting library                          : VirtualDub build 34703/release\n\nVideo\nID                                       : 0\nFormat                                   : MPEG-4 Visual\nFormat profile                           : Advanced Simple@L5\nFormat settings, BVOP                    : 2\nFormat settings, QPel                    : No\nFormat settings, GMC                     : No warppoints\nFormat settings, Matrix                  : Default (H.263)\nMuxing mode                              : Packed bitstream\nCodec ID                                 : XVID\nCodec ID/Hint                            : XviD\nDuration                                 : 1h 42mn\nBit rate                                 : 828 Kbps\nWidth                                    : 640 pixels\nHeight                                   : 352 pixels\nDisplay aspect ratio                     : 16:9\nFrame rate                               : 23.976 fps\nColor space                              : YUV\nChroma subsampling                       : 4:2:0\nBit depth                                : 8 bits\nScan type                                : Progressive\nCompression mode                         : Lossy\nBits/(Pixel*Frame)                       : 0.153\nStream size                              : 604 MiB (86%)\nWriting library                          : XviD 64\n\nAudio\nID                                       : 1\nFormat                                   : MPEG Audio\nFormat version                           : Version 1\nFormat profile                           : Layer 3\nCodec ID                                 : 55\nCodec ID/Hint                            : MP3\nDuration                                 : 1h 42mn\nBit rate mode                            : Constant\nBit rate                                 : 128 Kbps\nChannel(s)                               : 2 channels\nSampling rate                            : 48.0 KHz\nCompression mode                         : Lossy\nStream size                              : 93.4 MiB (13%)\nAlignment                                : Split accross interleaves\nInterleave, duration                     : 42 ms (1.00 video frame)\nInterleave, preload duration             : 500 ms\nWriting library                          : LAMELAME_MAJOR_VERSI\n\n\nPoster:\n\n &lt;a href=&quot;\nhttp://www.postimg.com/73000/photo-72613.jpg&quot; rel=&quot;nofollow&quot; target=&quot;_NEW&quot;&gt;\nhttp://www.postimg.com/73000/photo-72613.jpg&lt;/a&gt;\n\n\nScreenshots:\n\n &lt;a href=&quot;\nhttp://www.postimg.com/73000/photo-72615.jpg&quot; rel=&quot;nofollow&quot; target=&quot;_NEW&quot;&gt;\nhttp://www.postimg.com/73000/photo-72615.jpg&lt;/a&gt;\n\n\nENJOY!","torrent":{"xt":"urn:btih:e220df8b33ef9cd5805e541bdde5093f53560098","amp;dn":"Red+Rose+of+Normandy+2011+DVDRiP+HS","amp;tr":["udp%3A%2F%2Ftracker.openbittorrent.com%3A80","udp%3A%2F%2Fopen.demonii.com%3A1337","udp%3A%2F%2Ftracker.coppersurfer.tk%3A6969","udp%3A%2F%2Fexodus.desync.com%3A6969"],"infoHash":"e220df8b33ef9cd5805e541bdde5093f53560098","infoHashBuffer":{"type":"Buffer","data":[226,32,223,139,51,239,156,213,128,94,84,27,221,229,9,63,83,86,0,152]},"announce":[],"urlList":[]}}